<svg width="140" height="35" viewBox="0 0 140 35" fill="none" xmlns="http://www.w3.org/2000/svg">
<path d="M5.27778 14.7549L14.0741 0L17.2407 5.4902L11.963 14.7549L16.537 22.6471L13.0185 28.1373L5.27778 14.7549Z" fill="white"/>
<path d="M17.9444 6.86275L14.7778 12.3529L15.8333 13.7255H22.1667L17.9444 6.86275Z" fill="white"/>
<path d="M16.1852 20.2451L13.0185 14.7549H29.2037L38 29.5098H31.6667L26.037 20.2451H16.1852Z" fill="white"/>
<path d="M24.9815 21.2745H19L13.7222 29.5098H3.16667L0 34.6569L17.2407 35L24.9815 21.2745Z" fill="white"/>
<path d="M27.0926 24.0196H24.6296L21.463 29.5098H30.2593L27.0926 24.0196Z" fill="white"/>
<path d="M11.2593 26.7647L8.09259 21.6176L3.51852 28.1373H10.2037L11.2593 26.7647Z" fill="white"/>
<path d="M50.2584 20.51C50.2584 21.32 49.9734 21.965 49.4034 22.445C48.8434 22.915 47.9634 23.15 46.7634 23.15C46.1834 23.15 45.6734 23.115 45.2334 23.045C44.8034 22.975 44.3684 22.85 43.9284 22.67V20.63C44.4084 20.85 44.9084 21.02 45.4284 21.14C45.9484 21.25 46.3884 21.305 46.7484 21.305C47.1284 21.305 47.4034 21.255 47.5734 21.155C47.7434 21.055 47.8284 20.915 47.8284 20.735C47.8284 20.605 47.7834 20.49 47.6934 20.39C47.6134 20.29 47.4434 20.18 47.1834 20.06C46.9334 19.93 46.5584 19.76 46.0584 19.55C45.5684 19.34 45.1634 19.125 44.8434 18.905C44.5334 18.685 44.2984 18.425 44.1384 18.125C43.9884 17.815 43.9134 17.43 43.9134 16.97C43.9134 16.19 44.2134 15.605 44.8134 15.215C45.4234 14.815 46.2284 14.615 47.2284 14.615C47.7584 14.615 48.2584 14.67 48.7284 14.78C49.1984 14.89 49.6834 15.06 50.1834 15.29L49.4634 17C49.0534 16.82 48.6534 16.675 48.2634 16.565C47.8834 16.455 47.5384 16.4 47.2284 16.4C46.6484 16.4 46.3584 16.55 46.3584 16.85C46.3584 16.96 46.3984 17.065 46.4784 17.165C46.5684 17.255 46.7334 17.355 46.9734 17.465C47.2234 17.575 47.5834 17.73 48.0534 17.93C48.5234 18.12 48.9234 18.325 49.2534 18.545C49.5834 18.755 49.8334 19.015 50.0034 19.325C50.1734 19.635 50.2584 20.03 50.2584 20.51ZM55.6563 21.14C55.9063 21.14 56.1413 21.115 56.3613 21.065C56.5913 21.015 56.8213 20.95 57.0513 20.87V22.73C56.7813 22.85 56.4713 22.95 56.1213 23.03C55.7713 23.11 55.3563 23.15 54.8763 23.15C54.3663 23.15 53.9113 23.07 53.5113 22.91C53.1213 22.74 52.8113 22.455 52.5813 22.055C52.3613 21.655 52.2513 21.09 52.2513 20.36V16.655H51.2013V15.605L52.4613 14.795L53.1513 13.055H54.7713V14.765H56.9613V16.655H54.7713V20.27C54.7713 20.56 54.8513 20.78 55.0113 20.93C55.1713 21.07 55.3863 21.14 55.6563 21.14ZM62.3056 14.6C63.3756 14.6 64.2056 14.85 64.7956 15.35C65.3856 15.85 65.6806 16.58 65.6806 17.54V23H63.9256L63.4306 21.89H63.3706C63.0206 22.34 62.6506 22.665 62.2606 22.865C61.8706 23.055 61.3356 23.15 60.6556 23.15C59.9256 23.15 59.3206 22.935 58.8406 22.505C58.3606 22.075 58.1206 21.41 58.1206 20.51C58.1206 19.64 58.4256 18.995 59.0356 18.575C59.6556 18.145 60.5606 17.905 61.7506 17.855L63.1606 17.81V17.57C63.1606 17.17 63.0556 16.88 62.8456 16.7C62.6456 16.52 62.3656 16.43 62.0056 16.43C61.6456 16.43 61.2706 16.49 60.8806 16.61C60.4906 16.72 60.0956 16.86 59.6956 17.03L58.9306 15.35C59.3806 15.11 59.8906 14.925 60.4606 14.795C61.0306 14.665 61.6456 14.6 62.3056 14.6ZM62.3956 19.28C61.7656 19.3 61.3256 19.415 61.0756 19.625C60.8256 19.825 60.7006 20.1 60.7006 20.45C60.7006 20.76 60.7906 20.985 60.9706 21.125C61.1506 21.265 61.3806 21.335 61.6606 21.335C62.0806 21.335 62.4356 21.21 62.7256 20.96C63.0156 20.7 63.1606 20.35 63.1606 19.91V19.25L62.3956 19.28ZM72.7199 14.615C73.5899 14.615 74.2899 14.855 74.8199 15.335C75.3599 15.805 75.6299 16.57 75.6299 17.63V23H73.1099V18.335C73.1099 17.765 73.0149 17.335 72.8249 17.045C72.6349 16.755 72.3349 16.61 71.9249 16.61C71.3149 16.61 70.8999 16.84 70.6799 17.3C70.4599 17.75 70.3499 18.4 70.3499 19.25V23H67.8149V14.765H69.7349L70.0799 15.83H70.1999C70.4599 15.43 70.8099 15.13 71.2499 14.93C71.6899 14.72 72.1799 14.615 72.7199 14.615ZM79.8497 12.455C79.7597 12.815 79.6447 13.22 79.5047 13.67C79.3647 14.12 79.2147 14.57 79.0547 15.02C78.8947 15.47 78.7297 15.88 78.5597 16.25H76.7597C76.8997 15.62 77.0347 14.945 77.1647 14.225C77.3047 13.495 77.4097 12.85 77.4797 12.29H79.7447L79.8497 12.455ZM86.5719 20.51C86.5719 21.32 86.2869 21.965 85.7169 22.445C85.1569 22.915 84.2769 23.15 83.0769 23.15C82.4969 23.15 81.9869 23.115 81.5469 23.045C81.1169 22.975 80.6819 22.85 80.2419 22.67V20.63C80.7219 20.85 81.2219 21.02 81.7419 21.14C82.2619 21.25 82.7019 21.305 83.0619 21.305C83.4419 21.305 83.7169 21.255 83.8869 21.155C84.0569 21.055 84.1419 20.915 84.1419 20.735C84.1419 20.605 84.0969 20.49 84.0069 20.39C83.9269 20.29 83.7569 20.18 83.4969 20.06C83.2469 19.93 82.8719 19.76 82.3719 19.55C81.8819 19.34 81.4769 19.125 81.1569 18.905C80.8469 18.685 80.6119 18.425 80.4519 18.125C80.3019 17.815 80.2269 17.43 80.2269 16.97C80.2269 16.19 80.5269 15.605 81.1269 15.215C81.7369 14.815 82.5419 14.615 83.5419 14.615C84.0719 14.615 84.5719 14.67 85.0419 14.78C85.5119 14.89 85.9969 15.06 86.4969 15.29L85.7769 17C85.3669 16.82 84.9669 16.675 84.5769 16.565C84.1969 16.455 83.8519 16.4 83.5419 16.4C82.9619 16.4 82.6719 16.55 82.6719 16.85C82.6719 16.96 82.7119 17.065 82.7919 17.165C82.8819 17.255 83.0469 17.355 83.2869 17.465C83.5369 17.575 83.8969 17.73 84.3669 17.93C84.8369 18.12 85.2369 18.325 85.5669 18.545C85.8969 18.755 86.1469 19.015 86.3169 19.325C86.4869 19.635 86.5719 20.03 86.5719 20.51ZM95.8213 14.6C96.8913 14.6 97.7213 14.85 98.3113 15.35C98.9013 15.85 99.1963 16.58 99.1963 17.54V23H97.4413L96.9463 21.89H96.8863C96.5363 22.34 96.1663 22.665 95.7763 22.865C95.3863 23.055 94.8513 23.15 94.1713 23.15C93.4413 23.15 92.8363 22.935 92.3563 22.505C91.8763 22.075 91.6363 21.41 91.6363 20.51C91.6363 19.64 91.9413 18.995 92.5513 18.575C93.1713 18.145 94.0763 17.905 95.2663 17.855L96.6763 17.81V17.57C96.6763 17.17 96.5713 16.88 96.3613 16.7C96.1613 16.52 95.8813 16.43 95.5213 16.43C95.1613 16.43 94.7863 16.49 94.3963 16.61C94.0063 16.72 93.6113 16.86 93.2113 17.03L92.4463 15.35C92.8963 15.11 93.4063 14.925 93.9763 14.795C94.5463 14.665 95.1613 14.6 95.8213 14.6ZM95.9113 19.28C95.2813 19.3 94.8413 19.415 94.5913 19.625C94.3413 19.825 94.2163 20.1 94.2163 20.45C94.2163 20.76 94.3063 20.985 94.4863 21.125C94.6663 21.265 94.8963 21.335 95.1763 21.335C95.5963 21.335 95.9513 21.21 96.2413 20.96C96.5313 20.7 96.6763 20.35 96.6763 19.91V19.25L95.9113 19.28ZM107.255 20.51C107.255 21.32 106.97 21.965 106.4 22.445C105.84 22.915 104.96 23.15 103.76 23.15C103.18 23.15 102.67 23.115 102.23 23.045C101.8 22.975 101.365 22.85 100.925 22.67V20.63C101.405 20.85 101.905 21.02 102.425 21.14C102.945 21.25 103.385 21.305 103.745 21.305C104.125 21.305 104.4 21.255 104.57 21.155C104.74 21.055 104.825 20.915 104.825 20.735C104.825 20.605 104.78 20.49 104.69 20.39C104.61 20.29 104.44 20.18 104.18 20.06C103.93 19.93 103.555 19.76 103.055 19.55C102.565 19.34 102.16 19.125 101.84 18.905C101.53 18.685 101.295 18.425 101.135 18.125C100.985 17.815 100.91 17.43 100.91 16.97C100.91 16.19 101.21 15.605 101.81 15.215C102.42 14.815 103.225 14.615 104.225 14.615C104.755 14.615 105.255 14.67 105.725 14.78C106.195 14.89 106.68 15.06 107.18 15.29L106.46 17C106.05 16.82 105.65 16.675 105.26 16.565C104.88 16.455 104.535 16.4 104.225 16.4C103.645 16.4 103.355 16.55 103.355 16.85C103.355 16.96 103.395 17.065 103.475 17.165C103.565 17.255 103.73 17.355 103.97 17.465C104.22 17.575 104.58 17.73 105.05 17.93C105.52 18.12 105.92 18.325 106.25 18.545C106.58 18.755 106.83 19.015 107 19.325C107.17 19.635 107.255 20.03 107.255 20.51ZM114.843 20.51C114.843 21.32 114.558 21.965 113.988 22.445C113.428 22.915 112.548 23.15 111.348 23.15C110.768 23.15 110.258 23.115 109.818 23.045C109.388 22.975 108.953 22.85 108.513 22.67V20.63C108.993 20.85 109.493 21.02 110.013 21.14C110.533 21.25 110.973 21.305 111.333 21.305C111.713 21.305 111.988 21.255 112.158 21.155C112.328 21.055 112.413 20.915 112.413 20.735C112.413 20.605 112.368 20.49 112.278 20.39C112.198 20.29 112.028 20.18 111.768 20.06C111.518 19.93 111.143 19.76 110.643 19.55C110.153 19.34 109.748 19.125 109.428 18.905C109.118 18.685 108.883 18.425 108.723 18.125C108.573 17.815 108.498 17.43 108.498 16.97C108.498 16.19 108.798 15.605 109.398 15.215C110.008 14.815 110.813 14.615 111.813 14.615C112.343 14.615 112.843 14.67 113.313 14.78C113.783 14.89 114.268 15.06 114.768 15.29L114.048 17C113.638 16.82 113.238 16.675 112.848 16.565C112.468 16.455 112.123 16.4 111.813 16.4C111.233 16.4 110.943 16.55 110.943 16.85C110.943 16.96 110.983 17.065 111.063 17.165C111.153 17.255 111.318 17.355 111.558 17.465C111.808 17.575 112.168 17.73 112.638 17.93C113.108 18.12 113.508 18.325 113.838 18.545C114.168 18.755 114.418 19.015 114.588 19.325C114.758 19.635 114.843 20.03 114.843 20.51ZM120.061 14.615C121.221 14.615 122.141 14.935 122.821 15.575C123.501 16.205 123.841 17.135 123.841 18.365V19.535H118.636C118.656 20.075 118.831 20.505 119.161 20.825C119.491 21.145 119.961 21.305 120.571 21.305C121.091 21.305 121.566 21.255 121.996 21.155C122.436 21.055 122.886 20.895 123.346 20.675V22.55C122.936 22.76 122.501 22.91 122.041 23C121.591 23.1 121.031 23.15 120.361 23.15C119.531 23.15 118.791 23 118.141 22.7C117.501 22.4 116.996 21.94 116.626 21.32C116.266 20.69 116.086 19.895 116.086 18.935C116.086 17.965 116.251 17.16 116.581 16.52C116.911 15.88 117.371 15.405 117.961 15.095C118.561 14.775 119.261 14.615 120.061 14.615ZM120.106 16.37C119.716 16.37 119.391 16.495 119.131 16.745C118.881 16.985 118.731 17.37 118.681 17.9H121.516C121.506 17.47 121.386 17.11 121.156 16.82C120.926 16.52 120.576 16.37 120.106 16.37ZM129.279 21.14C129.529 21.14 129.764 21.115 129.984 21.065C130.214 21.015 130.444 20.95 130.674 20.87V22.73C130.404 22.85 130.094 22.95 129.744 23.03C129.394 23.11 128.979 23.15 128.499 23.15C127.989 23.15 127.534 23.07 127.134 22.91C126.744 22.74 126.434 22.455 126.204 22.055C125.984 21.655 125.874 21.09 125.874 20.36V16.655H124.824V15.605L126.084 14.795L126.774 13.055H128.394V14.765H130.584V16.655H128.394V20.27C128.394 20.56 128.474 20.78 128.634 20.93C128.794 21.07 129.009 21.14 129.279 21.14ZM138.164 20.51C138.164 21.32 137.879 21.965 137.309 22.445C136.749 22.915 135.869 23.15 134.669 23.15C134.089 23.15 133.579 23.115 133.139 23.045C132.709 22.975 132.274 22.85 131.834 22.67V20.63C132.314 20.85 132.814 21.02 133.334 21.14C133.854 21.25 134.294 21.305 134.654 21.305C135.034 21.305 135.309 21.255 135.479 21.155C135.649 21.055 135.734 20.915 135.734 20.735C135.734 20.605 135.689 20.49 135.599 20.39C135.519 20.29 135.349 20.18 135.089 20.06C134.839 19.93 134.464 19.76 133.964 19.55C133.474 19.34 133.069 19.125 132.749 18.905C132.439 18.685 132.204 18.425 132.044 18.125C131.894 17.815 131.819 17.43 131.819 16.97C131.819 16.19 132.119 15.605 132.719 15.215C133.329 14.815 134.134 14.615 135.134 14.615C135.664 14.615 136.164 14.67 136.634 14.78C137.104 14.89 137.589 15.06 138.089 15.29L137.369 17C136.959 16.82 136.559 16.675 136.169 16.565C135.789 16.455 135.444 16.4 135.134 16.4C134.554 16.4 134.264 16.55 134.264 16.85C134.264 16.96 134.304 17.065 134.384 17.165C134.474 17.255 134.639 17.355 134.879 17.465C135.129 17.575 135.489 17.73 135.959 17.93C136.429 18.12 136.829 18.325 137.159 18.545C137.489 18.755 137.739 19.015 137.909 19.325C138.079 19.635 138.164 20.03 138.164 20.51Z" fill="white"/>
</svg>
